<?xml version="1.0" encoding="UTF-8"?>
<svg id="Calque_2" data-name="Calque 2" xmlns="http://www.w3.org/2000/svg" viewBox="0 0 99.82 149.35">
  <defs>
    <style>
      .cls-1 {
        fill: #9c7a60;
      }
    </style>
  </defs>
  <g id="Calque_1-2" data-name="Calque 1">
    <g>
      <path class="cls-1" d="M61.75,0c13.72,0,17.15,5.8,17.15,15.04,0,11.08-6.33,22.42-27.96,44.32V10.55C50.93,2.11,53.04,0,61.75,0Z"/>
      <path class="cls-1" d="M31.8,59.35c13.72,0,17.15-5.8,17.15-15.04,0-11.08-6.33-22.42-27.96-44.32v48.8c0,8.44,2.11,10.55,10.82,10.55Z"/>
      <path class="cls-1" d="M48.95,76.37c0-9.23-3.43-15.04-17.14-15.04-8.71,0-10.82,2.11-10.82,10.55v10.71s27.26,0,27.26,0c.49-2.13.7-4.18.7-6.22Z"/>
      <path class="cls-1" d="M78.89,81.69v-48.8c-21.63,21.89-27.96,33.24-27.96,44.32,0,1.96.16,3.76.53,5.39h27.41c0-.3.02-.59.02-.9Z"/>
    </g>
    <polygon class="cls-1" points="20.93 119.74 20.93 120 20.93 139.95 26.49 139.95 26.49 120.61 26.49 120.53 26.49 90.52 20.93 90.52 20.93 119.74"/>
    <polygon class="cls-1" points="52.55 114.64 52.55 128.76 52.55 139.95 58.1 139.95 58.1 129.93 58.1 115.5 58.1 98.45 52.55 98.45 52.55 114.64"/>
    <path class="cls-1" d="M74.19,91.6c-2.79,0-4.94,2.06-6.48,13.97l-.59-.13,1.26-12.17v-2.82h-5.14v49.57h5.14v-30.16c0-7.38,1.54-12.86,3.6-12.86,1.4,0,1.76,1.27,1.76,4.13v38.9h5.14v-41.99c0-3.97-1.98-6.43-4.7-6.43Z"/>
    <path class="cls-1" d="M15.81,139.83v-10.03s0-7.94,0-7.94c-.17.1-.34.2-.51.3.17-.1.34-.2.51-.3v-24.79c0-4.07-2.3-6.55-6.91-6.55-5,0-8.89,5.83-8.89,10.86,0,3.67.48,8.22,2.06,12.06h7.62c-6.51-6.63-7.86-9.58-7.86-12.93,0-2.79,1.03-4.55,5.16-4.55,2.62,0,3.25.64,3.25,3.19v14.77c-5.81,5.47-9.09,8.07-9.54,13.56h0c-.04.44-.06.89-.06,1.37v5.51c0,3.83,1.59,5.67,4.6,5.67,2.17,0,3.81-1,5-6v6h5.57v-.19s0,0,0,0ZM11.3,123.8c.26,0,.56-.02.96-.1-.39.08-.7.1-.96.1ZM7.54,134.19c-.79,0-1.35-.48-1.35-1.92v-7.51s.09-.04.13-.05c1.35-.53,2.69-.91,3.5-1.01.14-.02.27-.02.39-.01-.14,6.38-1.07,10.5-2.68,10.5Z"/>
    <path class="cls-1" d="M42.67,91.37c-2.82,0-4.92,2.05-6.47,13.81l-.67-.14,1.22-12.02v-2.64h-5.11v58.98h5.19v-9.49l-1.85-2.04.29-.3.16-.17h0s.36.64,1.85,1.51c.5.33,1.01.59,1.53.78,0,0,0,0,.01,0,0,0,0,0,0,0,.56.19,1.13.3,1.72.3,4.74,0,6.89-3.92,6.89-13.33v-28.9c0-3.92-2-6.35-4.74-6.35ZM42.07,123.37c-.1,6.89-1.75,11.9-3.33,11.9-1.26,0-1.93-1.25-1.93-4.08v-11.92s0,0,0,0v-10.03c0-7.21,1.7-12.54,3.33-12.54,1.26,0,1.93,1.25,1.93,4.08v22.59Z"/>
    <path class="cls-1" d="M98.22,118.5c-.28,0-.5-.02-.7-.07l-.15,6.39c-.16,5.69-1.18,9.06-3.55,9.06-2.21,0-4.27-.98-4.27-7.37v-1.99s.03,0,.05,0c-.01-.57-.02-1.16-.02-1.76v-23.46c0-2.62.63-3.28,3.25-3.28,4.13,0,5.16,1.8,5.16,4.68,0,3.45-1.35,6.48-7.86,13.29h7.62c1.59-3.94,2.06-8.61,2.06-12.39,0-5.17-3.89-11.16-8.89-11.16-4.6,0-6.91,2.54-6.91,6.73v32.37c0,7.64,2.45,10.39,7.27,10.39,5.16,0,7.69-6.08,7.67-14.2-.18-4.38-.42-7.23-.74-7.22Z"/>
    <rect class="cls-1" x="52.55" y="90.39" width="5.56" height="4.65"/>
  </g>
</svg>